<svg
      height="281"
      width="500"
    ><path d="M 0 0  L 0 0" style="stroke: rgb(28, 32, 38); stroke-width: 0.9769814222737171; fill: none;" /><path d="M 0 15  L 0 15" style="stroke: rgb(28, 32, 38); stroke-width: 0.98413245191485; fill: none;" /><path d="M 10 0  L 10 0 L 15 0" style="stroke: rgb(28, 32, 38); stroke-width: 0.981493440412575; fill: none;" /><path d="M 25 5  L 25 5 L 30 10 L 35 10 L 40 15 L 45 20" style="stroke: rgb(28, 32, 38); stroke-width: 0.9984065892979488; fill: none;" /><path d="M 25 15  L 25 15 L 25 20" style="stroke: rgb(28, 32, 38); stroke-width: 0.9303612456385112; fill: none;" /><path d="M 35 0  L 35 0" style="stroke: rgb(28, 32, 38); stroke-width: 0.9309763549002796; fill: none;" /><path d="M 45 10  L 45 10" style="stroke: rgb(28, 32, 38); stroke-width: 0.9794947010116116; fill: none;" /><path d="M 55 5  L 55 5 L 60 10 L 60 15 L 65 20" style="stroke: rgb(28, 32, 38); stroke-width: 0.9974135581745756; fill: none;" /><path d="M 55 20  L 55 20" style="stroke: rgb(28, 32, 38); stroke-width: 0.9539775207699692; fill: none;" /><path d="M 60 5  L 60 5 L 65 5" style="stroke: rgb(28, 32, 38); stroke-width: 0.9940717983392069; fill: none;" /><path d="M 70 15  L 70 15" style="stroke: rgb(28, 32, 38); stroke-width: 0.9921637119278015; fill: none;" /><path d="M 80 0  L 80 0 L 80 5 L 85 10 L 90 15 L 95 15" style="stroke: rgb(28, 32, 38); stroke-width: 0.9194619623352974; fill: none;" /><path d="M 90 0  L 90 0" style="stroke: rgb(28, 32, 38); stroke-width: 0.9551417019193473; fill: none;" /><path d="M 90 20  L 90 20" style="stroke: rgb(28, 32, 38); stroke-width: 0.9985989613329674; fill: none;" /><path d="M 105 5  L 105 5 L 105 10" style="stroke: rgb(28, 32, 38); stroke-width: 0.9777137356792246; fill: none;" /><path d="M 115 5  L 115 5 L 115 10 L 115 15" style="stroke: rgb(28, 32, 38); stroke-width: 0.9211621275894181; fill: none;" /><path d="M 125 10  L 125 10" style="stroke: rgb(28, 32, 38); stroke-width: 0.9759683202164591; fill: none;" /><path d="M 125 20  L 125 20" style="stroke: rgb(28, 32, 38); stroke-width: 0.9947730946934185; fill: none;" /><path d="M 135 0  L 135 0 L 140 5" style="stroke: rgb(28, 32, 38); stroke-width: 0.9332573266534284; fill: none;" /><path d="M 135 5  L 135 5" style="stroke: rgb(28, 32, 38); stroke-width: 0.9339388244369271; fill: none;" /><path d="M 140 20  L 140 20 L 145 20" style="stroke: rgb(28, 32, 38); stroke-width: 0.9488280353769734; fill: none;" /><path d="M 145 15  L 145 15 L 150 15 L 155 20" style="stroke: rgb(28, 32, 38); stroke-width: 0.9609263126004574; fill: none;" /><path d="M 150 10  L 150 10" style="stroke: rgb(28, 32, 38); stroke-width: 0.9782749276651435; fill: none;" /><path d="M 165 15  L 165 15" style="stroke: rgb(28, 32, 38); stroke-width: 0.9497701029269832; fill: none;" /><path d="M 170 0  L 170 0" style="stroke: rgb(28, 32, 38); stroke-width: 0.9982285586287951; fill: none;" /><path d="M 175 20  L 175 20" style="stroke: rgb(28, 32, 38); stroke-width: 0.9226614748703813; fill: none;" /><path d="M 180 10  L 180 10 L 185 10" style="stroke: rgb(28, 32, 38); stroke-width: 0.9940956394041891; fill: none;" /><path d="M 185 0  L 185 0" style="stroke: rgb(28, 32, 38); stroke-width: 0.9895480532864908; fill: none;" /><path d="M 195 20  L 195 20" style="stroke: rgb(28, 32, 38); stroke-width: 0.9432718571417732; fill: none;" /><path d="M 200 10  L 200 10" style="stroke: rgb(28, 32, 38); stroke-width: 0.961287045999504; fill: none;" /><path d="M 210 15  L 210 15" style="stroke: rgb(28, 32, 38); stroke-width: 0.9461209084522818; fill: none;" /><path d="M 230 20  L 230 20" style="stroke: rgb(28, 32, 38); stroke-width: 0.9235834051438085; fill: none;" /><path d="M 235 10  L 235 10" style="stroke: rgb(28, 32, 38); stroke-width: 0.9033367427384854; fill: none;" /><path d="M 250 0  L 250 0" style="stroke: rgb(28, 32, 38); stroke-width: 0.974218344201516; fill: none;" /><path d="M 255 20  L 255 20" style="stroke: rgb(28, 32, 38); stroke-width: 0.9348864648475488; fill: none;" /><path d="M 265 15  L 265 15 L 270 20" style="stroke: rgb(28, 32, 38); stroke-width: 0.9860493509704286; fill: none;" /><path d="M 280 5  L 280 5" style="stroke: rgb(28, 32, 38); stroke-width: 0.9792138901471648; fill: none;" /><path d="M 290 20  L 290 20" style="stroke: rgb(28, 32, 38); stroke-width: 0.9153177535362772; fill: none;" /><path d="M 300 20  L 300 20" style="stroke: rgb(28, 32, 38); stroke-width: 0.9442891133247937; fill: none;" /><path d="M 310 10  L 310 10" style="stroke: rgb(28, 32, 38); stroke-width: 0.9811791967296078; fill: none;" /><path d="M 320 10  L 320 10" style="stroke: rgb(28, 32, 38); stroke-width: 0.9036258276928385; fill: none;" /><path d="M 335 0  L 335 0 L 340 0" style="stroke: rgb(28, 32, 38); stroke-width: 0.9719540776594382; fill: none;" /><path d="M 335 10  L 335 10 L 340 10 L 345 10 L 350 15 L 350 20" style="stroke: rgb(28, 32, 38); stroke-width: 0.9554309504338685; fill: none;" /><path d="M 350 10  L 350 10 L 355 10 L 360 10" style="stroke: rgb(28, 32, 38); stroke-width: 0.9184105684457478; fill: none;" /><path d="M 360 5  L 360 5" style="stroke: rgb(28, 32, 38); stroke-width: 0.9654508630560356; fill: none;" /><path d="M 370 0  L 370 0" style="stroke: rgb(28, 32, 38); stroke-width: 0.9717718154822288; fill: none;" /><path d="M 370 15  L 370 15 L 370 20" style="stroke: rgb(28, 32, 38); stroke-width: 0.9220430888129467; fill: none;" /><path d="M 380 5  L 380 5" style="stroke: rgb(28, 32, 38); stroke-width: 0.9782623134213815; fill: none;" /><path d="M 385 0  L 385 0" style="stroke: rgb(28, 32, 38); stroke-width: 0.9685428277608166; fill: none;" /><path d="M 395 5  L 395 5 L 400 5" style="stroke: rgb(28, 32, 38); stroke-width: 0.959877248883299; fill: none;" /><path d="M 395 15  L 395 15 L 400 20" style="stroke: rgb(28, 32, 38); stroke-width: 0.9026224687814903; fill: none;" /><path d="M 410 0  L 410 0 L 415 0" style="stroke: rgb(28, 32, 38); stroke-width: 0.9431512951997827; fill: none;" /><path d="M 415 15  L 415 15 L 420 20 L 425 20" style="stroke: rgb(28, 32, 38); stroke-width: 0.9360863798732265; fill: none;" /><path d="M 425 0  L 425 0 L 430 5 L 430 10" style="stroke: rgb(28, 32, 38); stroke-width: 0.9989273777960815; fill: none;" /><path d="M 435 20  L 435 20" style="stroke: rgb(28, 32, 38); stroke-width: 0.9354989551931112; fill: none;" /><path d="M 450 10  L 450 10" style="stroke: rgb(28, 32, 38); stroke-width: 0.9497772469767606; fill: none;" /><path d="M 465 5  L 465 5 L 465 10 L 470 15" style="stroke: rgb(28, 32, 38); stroke-width: 0.963285786201752; fill: none;" /><path d="M 475 0  L 475 0" style="stroke: rgb(28, 32, 38); stroke-width: 0.9862875791935054; fill: none;" /><path d="M 485 20  L 485 20" style="stroke: rgb(28, 32, 38); stroke-width: 0.9634388138135841; fill: none;" /><path d="M 490 15  L 490 15" style="stroke: rgb(28, 32, 38); stroke-width: 0.9022508531291082; fill: none;" /></svg>