<svg
      height="950"
      width="750"
    ><path d="M 0 20  L 0 20 L 5 20" style="stroke: rgb(28, 32, 38); stroke-width: 0.921744864716948; fill: none;" /><path d="M 0 35  L 0 35 L 5 35" style="stroke: rgb(28, 32, 38); stroke-width: 0.9821563391902045; fill: none;" /><path d="M 0 40  L 0 40" style="stroke: rgb(28, 32, 38); stroke-width: 0.9946492289675205; fill: none;" /><path d="M 10 15  L 10 15 L 15 20 L 20 20" style="stroke: rgb(28, 32, 38); stroke-width: 0.9115978241021958; fill: none;" /><path d="M 20 30  L 20 30 L 25 35 L 25 40" style="stroke: rgb(28, 32, 38); stroke-width: 0.9963989849400972; fill: none;" /><path d="M 25 30  L 25 30 L 30 30 L 35 35" style="stroke: rgb(28, 32, 38); stroke-width: 0.9838959215416141; fill: none;" /><path d="M 30 10  L 30 10 L 35 10" style="stroke: rgb(28, 32, 38); stroke-width: 0.9966030011086839; fill: none;" /><path d="M 35 20  L 35 20" style="stroke: rgb(28, 32, 38); stroke-width: 0.9538695993835955; fill: none;" /><path d="M 45 0  L 45 0" style="stroke: rgb(28, 32, 38); stroke-width: 0.9163804423808779; fill: none;" /><path d="M 50 10  L 50 10" style="stroke: rgb(28, 32, 38); stroke-width: 0.9093545017305706; fill: none;" /><path d="M 60 20  L 60 20" style="stroke: rgb(28, 32, 38); stroke-width: 0.9582214924513314; fill: none;" /><path d="M 60 40  L 60 40" style="stroke: rgb(28, 32, 38); stroke-width: 0.929078958968603; fill: none;" /><path d="M 65 15  L 65 15 L 70 15" style="stroke: rgb(28, 32, 38); stroke-width: 0.9103549766902507; fill: none;" /><path d="M 80 10  L 80 10" style="stroke: rgb(28, 32, 38); stroke-width: 0.9132479243814796; fill: none;" /><path d="M 80 20  L 80 20" style="stroke: rgb(28, 32, 38); stroke-width: 0.9159029497451692; fill: none;" /><path d="M 80 30  L 80 30" style="stroke: rgb(28, 32, 38); stroke-width: 0.9562942433382638; fill: none;" /><path d="M 90 0  L 90 0 L 95 0 L 100 5 L 105 10 L 105 15" style="stroke: rgb(28, 32, 38); stroke-width: 0.919530489671645; fill: none;" /><path d="M 90 5  L 90 5" style="stroke: rgb(28, 32, 38); stroke-width: 0.9053933314680597; fill: none;" /><path d="M 90 20  L 90 20" style="stroke: rgb(28, 32, 38); stroke-width: 0.9824342730063264; fill: none;" /><path d="M 100 0  L 100 0 L 105 0" style="stroke: rgb(28, 32, 38); stroke-width: 0.9648666901630796; fill: none;" /><path d="M 100 10  L 100 10" style="stroke: rgb(28, 32, 38); stroke-width: 0.9197562411559622; fill: none;" /><path d="M 120 5  L 120 5 L 125 10 L 130 10 L 135 10 L 140 10 L 145 10" style="stroke: rgb(28, 32, 38); stroke-width: 0.9213172041010954; fill: none;" /><path d="M 120 10  L 120 10" style="stroke: rgb(28, 32, 38); stroke-width: 0.9275568633961744; fill: none;" /><path d="M 130 20  L 130 20 L 135 20" style="stroke: rgb(28, 32, 38); stroke-width: 0.9771691541605462; fill: none;" /><path d="M 135 30  L 135 30 L 140 35" style="stroke: rgb(28, 32, 38); stroke-width: 0.9154783414985083; fill: none;" /><path d="M 140 30  L 140 30" style="stroke: rgb(28, 32, 38); stroke-width: 0.9929006041213212; fill: none;" /><path d="M 145 0  L 145 0 L 150 0 L 155 0" style="stroke: rgb(28, 32, 38); stroke-width: 0.9975330390963172; fill: none;" /><path d="M 150 40  L 150 40" style="stroke: rgb(28, 32, 38); stroke-width: 0.9733249238772788; fill: none;" /><path d="M 155 15  L 155 15 L 160 15" style="stroke: rgb(28, 32, 38); stroke-width: 0.9716274983994738; fill: none;" /><path d="M 155 30  L 155 30 L 160 30 L 165 30" style="stroke: rgb(28, 32, 38); stroke-width: 0.9259717378779448; fill: none;" /><path d="M 155 35  L 155 35" style="stroke: rgb(28, 32, 38); stroke-width: 0.9348789534904409; fill: none;" /><path d="M 165 40  L 165 40" style="stroke: rgb(28, 32, 38); stroke-width: 0.926027251955012; fill: none;" /><path d="M 175 10  L 175 10 L 180 10 L 185 10 L 190 15 L 195 15" style="stroke: rgb(28, 32, 38); stroke-width: 0.9267040864458771; fill: none;" /><path d="M 190 30  L 190 30" style="stroke: rgb(28, 32, 38); stroke-width: 0.9027883171308321; fill: none;" /><path d="M 195 10  L 195 10" style="stroke: rgb(28, 32, 38); stroke-width: 0.991383443408341; fill: none;" /><path d="M 205 5  L 205 5" style="stroke: rgb(28, 32, 38); stroke-width: 0.9285115790558092; fill: none;" /><path d="M 210 15  L 210 15" style="stroke: rgb(28, 32, 38); stroke-width: 0.9905607165382645; fill: none;" /><path d="M 215 25  L 215 25" style="stroke: rgb(28, 32, 38); stroke-width: 0.9790579399707244; fill: none;" /><path d="M 215 40  L 215 40" style="stroke: rgb(28, 32, 38); stroke-width: 0.9359287086523586; fill: none;" /><path d="M 220 35  L 220 35" style="stroke: rgb(28, 32, 38); stroke-width: 0.9711252731111479; fill: none;" /><path d="M 235 15  L 235 15" style="stroke: rgb(28, 32, 38); stroke-width: 0.9436005826785848; fill: none;" /><path d="M 235 25  L 235 25 L 235 30" style="stroke: rgb(28, 32, 38); stroke-width: 0.9208120285764305; fill: none;" /><path d="M 245 30  L 245 30 L 245 35 L 245 40" style="stroke: rgb(28, 32, 38); stroke-width: 0.9388398868903426; fill: none;" /><path d="M 250 10  L 250 10 L 255 15 L 260 20 L 265 25 L 270 30 L 275 35" style="stroke: rgb(28, 32, 38); stroke-width: 0.9039254958683749; fill: none;" /><path d="M 250 20  L 250 20 L 250 25 L 255 30" style="stroke: rgb(28, 32, 38); stroke-width: 0.9069710559528222; fill: none;" /><path d="M 260 5  L 260 5" style="stroke: rgb(28, 32, 38); stroke-width: 0.9922861911920733; fill: none;" /><path d="M 260 25  L 260 25" style="stroke: rgb(28, 32, 38); stroke-width: 0.9377435741652262; fill: none;" /><path d="M 265 20  L 265 20 L 270 20" style="stroke: rgb(28, 32, 38); stroke-width: 0.9286003875919202; fill: none;" /><path d="M 270 35  L 270 35" style="stroke: rgb(28, 32, 38); stroke-width: 0.9755931029116832; fill: none;" /><path d="M 280 5  L 280 5" style="stroke: rgb(28, 32, 38); stroke-width: 0.9119578343146386; fill: none;" /><path d="M 290 10  L 290 10 L 290 15 L 295 20" style="stroke: rgb(28, 32, 38); stroke-width: 0.931385933911511; fill: none;" /><path d="M 290 20  L 290 20" style="stroke: rgb(28, 32, 38); stroke-width: 0.9202603341901177; fill: none;" /><path d="M 290 30  L 290 30" style="stroke: rgb(28, 32, 38); stroke-width: 0.9339112109964927; fill: none;" /><path d="M 290 40  L 290 40" style="stroke: rgb(28, 32, 38); stroke-width: 0.9802189325400958; fill: none;" /><path d="M 300 5  L 300 5 L 305 5" style="stroke: rgb(28, 32, 38); stroke-width: 0.993291849146708; fill: none;" /><path d="M 300 15  L 300 15" style="stroke: rgb(28, 32, 38); stroke-width: 0.9983450790420679; fill: none;" /><path d="M 305 40  L 305 40" style="stroke: rgb(28, 32, 38); stroke-width: 0.9216212252617404; fill: none;" /><path d="M 315 10  L 315 10" style="stroke: rgb(28, 32, 38); stroke-width: 0.9950746144405224; fill: none;" /><path d="M 315 30  L 315 30 L 320 30 L 325 35 L 330 40" style="stroke: rgb(28, 32, 38); stroke-width: 0.9029669003741793; fill: none;" /><path d="M 315 35  L 315 35" style="stroke: rgb(28, 32, 38); stroke-width: 0.9193296178171712; fill: none;" /><path d="M 320 0  L 320 0 L 325 5 L 330 5" style="stroke: rgb(28, 32, 38); stroke-width: 0.9543386980812253; fill: none;" /><path d="M 330 25  L 330 25 L 335 30" style="stroke: rgb(28, 32, 38); stroke-width: 0.9390516031804588; fill: none;" /><path d="M 335 15  L 335 15" style="stroke: rgb(28, 32, 38); stroke-width: 0.9433164578969109; fill: none;" /><path d="M 340 25  L 340 25" style="stroke: rgb(28, 32, 38); stroke-width: 0.9512401385687954; fill: none;" /><path d="M 350 10  L 350 10 L 355 15" style="stroke: rgb(28, 32, 38); stroke-width: 0.9911543270841534; fill: none;" /><path d="M 350 15  L 350 15 L 350 20" style="stroke: rgb(28, 32, 38); stroke-width: 0.9389427305515613; fill: none;" /><path d="M 355 40  L 355 40 L 360 40" style="stroke: rgb(28, 32, 38); stroke-width: 0.9338177572383671; fill: none;" /><path d="M 360 5  L 360 5" style="stroke: rgb(28, 32, 38); stroke-width: 0.9234474646364276; fill: none;" /><path d="M 360 25  L 360 25 L 365 25 L 370 30" style="stroke: rgb(28, 32, 38); stroke-width: 0.9381041465840131; fill: none;" /><path d="M 370 0  L 370 0" style="stroke: rgb(28, 32, 38); stroke-width: 0.9860762926946184; fill: none;" /><path d="M 370 20  L 370 20 L 375 20 L 380 20" style="stroke: rgb(28, 32, 38); stroke-width: 0.9979645670558148; fill: none;" /><path d="M 375 40  L 375 40" style="stroke: rgb(28, 32, 38); stroke-width: 0.9036957035966541; fill: none;" /><path d="M 385 10  L 385 10 L 385 15" style="stroke: rgb(28, 32, 38); stroke-width: 0.9471907788234889; fill: none;" /><path d="M 385 40  L 385 40" style="stroke: rgb(28, 32, 38); stroke-width: 0.9261950988142728; fill: none;" /><path d="M 390 25  L 390 25" style="stroke: rgb(28, 32, 38); stroke-width: 0.9587185943368184; fill: none;" /><path d="M 395 5  L 395 5" style="stroke: rgb(28, 32, 38); stroke-width: 0.9824480476045687; fill: none;" /><path d="M 395 40  L 395 40" style="stroke: rgb(28, 32, 38); stroke-width: 0.9427462095812197; fill: none;" /><path d="M 405 25  L 405 25 L 410 30 L 415 35" style="stroke: rgb(28, 32, 38); stroke-width: 0.9536168332665047; fill: none;" /><path d="M 415 10  L 415 10 L 415 15 L 420 20" style="stroke: rgb(28, 32, 38); stroke-width: 0.9143009189928107; fill: none;" /><path d="M 415 25  L 415 25" style="stroke: rgb(28, 32, 38); stroke-width: 0.9208700012400146; fill: none;" /><path d="M 430 15  L 430 15 L 435 20 L 440 20 L 445 20" style="stroke: rgb(28, 32, 38); stroke-width: 0.9576631724092306; fill: none;" /><path d="M 430 35  L 430 35 L 435 40" style="stroke: rgb(28, 32, 38); stroke-width: 0.9616568296813401; fill: none;" /><path d="M 435 0  L 435 0" style="stroke: rgb(28, 32, 38); stroke-width: 0.9103663693291467; fill: none;" /><path d="M 435 10  L 435 10" style="stroke: rgb(28, 32, 38); stroke-width: 0.9032593197637104; fill: none;" /><path d="M 440 30  L 440 30" style="stroke: rgb(28, 32, 38); stroke-width: 0.904517066150378; fill: none;" /><path d="M 445 5  L 445 5" style="stroke: rgb(28, 32, 38); stroke-width: 0.9715052161923939; fill: none;" /><path d="M 445 40  L 445 40" style="stroke: rgb(28, 32, 38); stroke-width: 0.9134650663953277; fill: none;" /><path d="M 455 0  L 455 0 L 455 5" style="stroke: rgb(28, 32, 38); stroke-width: 0.9583986293957876; fill: none;" /><path d="M 455 20  L 455 20" style="stroke: rgb(28, 32, 38); stroke-width: 0.9247613910651966; fill: none;" /><path d="M 460 30  L 460 30" style="stroke: rgb(28, 32, 38); stroke-width: 0.9223515679990935; fill: none;" /><path d="M 460 40  L 460 40" style="stroke: rgb(28, 32, 38); stroke-width: 0.9589834496403703; fill: none;" /><path d="M 465 25  L 465 25" style="stroke: rgb(28, 32, 38); stroke-width: 0.982103354710387; fill: none;" /><path d="M 480 20  L 480 20" style="stroke: rgb(28, 32, 38); stroke-width: 0.9044055797189137; fill: none;" /><path d="M 485 10  L 485 10" style="stroke: rgb(28, 32, 38); stroke-width: 0.9243132458060122; fill: none;" /><path d="M 490 20  L 490 20" style="stroke: rgb(28, 32, 38); stroke-width: 0.9170656087751557; fill: none;" /><path d="M 490 35  L 490 35 L 495 35" style="stroke: rgb(28, 32, 38); stroke-width: 0.9628923767017814; fill: none;" /><path d="M 490 40  L 490 40" style="stroke: rgb(28, 32, 38); stroke-width: 0.9715201288179093; fill: none;" /><path d="M 495 0  L 495 0" style="stroke: rgb(28, 32, 38); stroke-width: 0.9336277873336375; fill: none;" /><path d="M 495 10  L 495 10" style="stroke: rgb(28, 32, 38); stroke-width: 0.9548098711104067; fill: none;" /><path d="M 505 10  L 505 10 L 510 10 L 515 15" style="stroke: rgb(28, 32, 38); stroke-width: 0.9485124321224174; fill: none;" /><path d="M 505 15  L 505 15" style="stroke: rgb(28, 32, 38); stroke-width: 0.9496220403122834; fill: none;" /><path d="M 505 35  L 505 35" style="stroke: rgb(28, 32, 38); stroke-width: 0.9390119509129682; fill: none;" /><path d="M 510 30  L 510 30" style="stroke: rgb(28, 32, 38); stroke-width: 0.9899656774530717; fill: none;" /><path d="M 515 5  L 515 5 L 515 10" style="stroke: rgb(28, 32, 38); stroke-width: 0.9547573559682968; fill: none;" /><path d="M 520 0  L 520 0 L 525 5" style="stroke: rgb(28, 32, 38); stroke-width: 0.9702884055559525; fill: none;" /><path d="M 520 30  L 520 30 L 525 35 L 525 40" style="stroke: rgb(28, 32, 38); stroke-width: 0.9061863320662602; fill: none;" /><path d="M 535 10  L 535 10" style="stroke: rgb(28, 32, 38); stroke-width: 0.9648693002729382; fill: none;" /><path d="M 535 20  L 535 20 L 535 25" style="stroke: rgb(28, 32, 38); stroke-width: 0.9560699818416835; fill: none;" /><path d="M 540 0  L 540 0" style="stroke: rgb(28, 32, 38); stroke-width: 0.9636054656126223; fill: none;" /><path d="M 545 10  L 545 10" style="stroke: rgb(28, 32, 38); stroke-width: 0.967073660204361; fill: none;" /><path d="M 545 35  L 545 35 L 545 40" style="stroke: rgb(28, 32, 38); stroke-width: 0.9525616585201782; fill: none;" /><path d="M 555 0  L 555 0 L 555 5" style="stroke: rgb(28, 32, 38); stroke-width: 0.938816958565793; fill: none;" /><path d="M 560 15  L 560 15 L 565 20 L 570 25" style="stroke: rgb(28, 32, 38); stroke-width: 0.9032686483688765; fill: none;" /><path d="M 560 25  L 560 25 L 565 25" style="stroke: rgb(28, 32, 38); stroke-width: 0.9139562424588559; fill: none;" /><path d="M 560 30  L 560 30 L 565 35 L 570 40" style="stroke: rgb(28, 32, 38); stroke-width: 0.977630771368014; fill: none;" /><path d="M 560 40  L 560 40 L 565 40" style="stroke: rgb(28, 32, 38); stroke-width: 0.9945195933731308; fill: none;" /><path d="M 565 5  L 565 5" style="stroke: rgb(28, 32, 38); stroke-width: 0.9685040414074183; fill: none;" /><path d="M 570 0  L 570 0" style="stroke: rgb(28, 32, 38); stroke-width: 0.9327534654560242; fill: none;" /><path d="M 570 15  L 570 15" style="stroke: rgb(28, 32, 38); stroke-width: 0.9372584613147685; fill: none;" /><path d="M 575 10  L 575 10" style="stroke: rgb(28, 32, 38); stroke-width: 0.9555354654450595; fill: none;" /><path d="M 580 20  L 580 20" style="stroke: rgb(28, 32, 38); stroke-width: 0.9428970183583015; fill: none;" /><path d="M 590 20  L 590 20 L 595 20" style="stroke: rgb(28, 32, 38); stroke-width: 0.997692025751866; fill: none;" /><path d="M 590 25  L 590 25" style="stroke: rgb(28, 32, 38); stroke-width: 0.9704832291033524; fill: none;" /><path d="M 605 5  L 605 5" style="stroke: rgb(28, 32, 38); stroke-width: 0.9614862876497284; fill: none;" /><path d="M 605 25  L 605 25" style="stroke: rgb(28, 32, 38); stroke-width: 0.9298943157985416; fill: none;" /><path d="M 620 10  L 620 10 L 625 15" style="stroke: rgb(28, 32, 38); stroke-width: 0.9202857932158859; fill: none;" /><path d="M 620 40  L 620 40" style="stroke: rgb(28, 32, 38); stroke-width: 0.9369475537505116; fill: none;" /><path d="M 625 0  L 625 0 L 630 5 L 635 10" style="stroke: rgb(28, 32, 38); stroke-width: 0.917075407299904; fill: none;" /><path d="M 625 30  L 625 30 L 630 35" style="stroke: rgb(28, 32, 38); stroke-width: 0.9149492543874256; fill: none;" /><path d="M 625 35  L 625 35" style="stroke: rgb(28, 32, 38); stroke-width: 0.9767906542505574; fill: none;" /><path d="M 630 25  L 630 25 L 635 30" style="stroke: rgb(28, 32, 38); stroke-width: 0.9991195276507637; fill: none;" /><path d="M 630 30  L 630 30" style="stroke: rgb(28, 32, 38); stroke-width: 0.98229985728079; fill: none;" /><path d="M 640 20  L 640 20" style="stroke: rgb(28, 32, 38); stroke-width: 0.9845667242021459; fill: none;" /><path d="M 645 15  L 645 15" style="stroke: rgb(28, 32, 38); stroke-width: 0.9407719930285344; fill: none;" /><path d="M 645 35  L 645 35 L 650 35" style="stroke: rgb(28, 32, 38); stroke-width: 0.9362107060821607; fill: none;" /><path d="M 645 40  L 645 40" style="stroke: rgb(28, 32, 38); stroke-width: 0.9541637471253155; fill: none;" /><path d="M 650 10  L 650 10 L 655 10" style="stroke: rgb(28, 32, 38); stroke-width: 0.9542660667163656; fill: none;" /><path d="M 650 30  L 650 30" style="stroke: rgb(28, 32, 38); stroke-width: 0.921905764483527; fill: none;" /><path d="M 655 5  L 655 5" style="stroke: rgb(28, 32, 38); stroke-width: 0.908577800397579; fill: none;" /><path d="M 655 20  L 655 20" style="stroke: rgb(28, 32, 38); stroke-width: 0.9129424532055311; fill: none;" /><path d="M 665 10  L 665 10" style="stroke: rgb(28, 32, 38); stroke-width: 0.9749023102692741; fill: none;" /><path d="M 665 40  L 665 40 L 670 40 L 675 40" style="stroke: rgb(28, 32, 38); stroke-width: 0.9005573882959227; fill: none;" /><path d="M 670 0  L 670 0" style="stroke: rgb(28, 32, 38); stroke-width: 0.9205650575199849; fill: none;" /><path d="M 670 25  L 670 25" style="stroke: rgb(28, 32, 38); stroke-width: 0.9824615940536846; fill: none;" /><path d="M 680 15  L 680 15" style="stroke: rgb(28, 32, 38); stroke-width: 0.9587599389596163; fill: none;" /><path d="M 685 25  L 685 25 L 690 25 L 695 30 L 695 35 L 700 40" style="stroke: rgb(28, 32, 38); stroke-width: 0.9317310770397925; fill: none;" /><path d="M 685 30  L 685 30" style="stroke: rgb(28, 32, 38); stroke-width: 0.9301776425564556; fill: none;" /><path d="M 685 40  L 685 40" style="stroke: rgb(28, 32, 38); stroke-width: 0.9358782931871019; fill: none;" /><path d="M 700 10  L 700 10" style="stroke: rgb(28, 32, 38); stroke-width: 0.9526520079975034; fill: none;" /><path d="M 705 30  L 705 30 L 710 30" style="stroke: rgb(28, 32, 38); stroke-width: 0.9578912440774578; fill: none;" /><path d="M 705 35  L 705 35 L 710 40" style="stroke: rgb(28, 32, 38); stroke-width: 0.9700869451763936; fill: none;" /><path d="M 710 20  L 710 20" style="stroke: rgb(28, 32, 38); stroke-width: 0.9877659292449962; fill: none;" /><path d="M 715 10  L 715 10 L 720 10" style="stroke: rgb(28, 32, 38); stroke-width: 0.9773641902557757; fill: none;" /><path d="M 730 25  L 730 25 L 730 30 L 735 35" style="stroke: rgb(28, 32, 38); stroke-width: 0.9322753362349556; fill: none;" /><path d="M 735 20  L 735 20" style="stroke: rgb(28, 32, 38); stroke-width: 0.9383962375277074; fill: none;" /><path d="M 740 30  L 740 30" style="stroke: rgb(28, 32, 38); stroke-width: 0.9381510807080921; fill: none;" /><path d="M 745 25  L 745 25" style="stroke: rgb(28, 32, 38); stroke-width: 0.9706876663969134; fill: none;" /><path d="M 745 40  L 745 40" style="stroke: rgb(28, 32, 38); stroke-width: 0.949957374410058; fill: none;" /></svg>