<svg
      height="950"
      width="750"
    ><path d="M 0 20  L 0 20 L 5 20" style="stroke: rgb(28, 32, 38); stroke-width: 0.9316378766469737; fill: none;" /><path d="M 0 35  L 0 35 L 5 35" style="stroke: rgb(28, 32, 38); stroke-width: 0.9263189962507269; fill: none;" /><path d="M 0 40  L 0 40" style="stroke: rgb(28, 32, 38); stroke-width: 0.9239053750767766; fill: none;" /><path d="M 10 15  L 10 15 L 15 20 L 20 20" style="stroke: rgb(28, 32, 38); stroke-width: 0.9074187648801; fill: none;" /><path d="M 20 30  L 20 30 L 25 35 L 25 40" style="stroke: rgb(28, 32, 38); stroke-width: 0.9419275949595928; fill: none;" /><path d="M 25 30  L 25 30 L 30 30 L 35 35" style="stroke: rgb(28, 32, 38); stroke-width: 0.9957678391390998; fill: none;" /><path d="M 30 10  L 30 10 L 35 10" style="stroke: rgb(28, 32, 38); stroke-width: 0.9715418004351507; fill: none;" /><path d="M 35 20  L 35 20" style="stroke: rgb(28, 32, 38); stroke-width: 0.9084602809976645; fill: none;" /><path d="M 45 0  L 45 0" style="stroke: rgb(28, 32, 38); stroke-width: 0.9790202934288619; fill: none;" /><path d="M 50 10  L 50 10" style="stroke: rgb(28, 32, 38); stroke-width: 0.9467734906556129; fill: none;" /><path d="M 60 20  L 60 20" style="stroke: rgb(28, 32, 38); stroke-width: 0.9991675712539377; fill: none;" /><path d="M 60 40  L 60 40" style="stroke: rgb(28, 32, 38); stroke-width: 0.9098475748514591; fill: none;" /><path d="M 65 15  L 65 15 L 70 15" style="stroke: rgb(28, 32, 38); stroke-width: 0.995678065783543; fill: none;" /><path d="M 80 10  L 80 10" style="stroke: rgb(28, 32, 38); stroke-width: 0.9095051374366829; fill: none;" /><path d="M 80 20  L 80 20" style="stroke: rgb(28, 32, 38); stroke-width: 0.923925293855174; fill: none;" /><path d="M 80 30  L 80 30" style="stroke: rgb(28, 32, 38); stroke-width: 0.9734792809930592; fill: none;" /><path d="M 90 0  L 90 0 L 95 0 L 100 5 L 105 10 L 105 15" style="stroke: rgb(28, 32, 38); stroke-width: 0.9114573338370014; fill: none;" /><path d="M 90 5  L 90 5" style="stroke: rgb(28, 32, 38); stroke-width: 0.9238001327286881; fill: none;" /><path d="M 90 20  L 90 20" style="stroke: rgb(28, 32, 38); stroke-width: 0.9434865081136713; fill: none;" /><path d="M 100 0  L 100 0 L 105 0" style="stroke: rgb(28, 32, 38); stroke-width: 0.9226667656575392; fill: none;" /><path d="M 100 10  L 100 10" style="stroke: rgb(28, 32, 38); stroke-width: 0.9185580864479256; fill: none;" /><path d="M 120 5  L 120 5 L 125 10 L 130 10 L 135 10 L 140 10 L 145 10" style="stroke: rgb(28, 32, 38); stroke-width: 0.9262853419017444; fill: none;" /><path d="M 120 10  L 120 10" style="stroke: rgb(28, 32, 38); stroke-width: 0.9019388080936172; fill: none;" /><path d="M 130 20  L 130 20 L 135 20" style="stroke: rgb(28, 32, 38); stroke-width: 0.9840937261038009; fill: none;" /><path d="M 135 30  L 135 30 L 140 35" style="stroke: rgb(28, 32, 38); stroke-width: 0.9767538078449743; fill: none;" /><path d="M 140 30  L 140 30" style="stroke: rgb(28, 32, 38); stroke-width: 0.9399227204554352; fill: none;" /><path d="M 145 0  L 145 0 L 150 0 L 155 0" style="stroke: rgb(28, 32, 38); stroke-width: 0.9999679487864157; fill: none;" /><path d="M 150 40  L 150 40" style="stroke: rgb(28, 32, 38); stroke-width: 0.9226104661118808; fill: none;" /><path d="M 155 15  L 155 15 L 160 15" style="stroke: rgb(28, 32, 38); stroke-width: 0.9115876702939611; fill: none;" /><path d="M 155 30  L 155 30 L 160 30 L 165 30" style="stroke: rgb(28, 32, 38); stroke-width: 0.9260050404951194; fill: none;" /><path d="M 155 35  L 155 35" style="stroke: rgb(28, 32, 38); stroke-width: 0.9060471841217714; fill: none;" /><path d="M 165 40  L 165 40" style="stroke: rgb(28, 32, 38); stroke-width: 0.951621236571403; fill: none;" /><path d="M 175 10  L 175 10 L 180 10 L 185 10 L 190 15 L 195 15" style="stroke: rgb(28, 32, 38); stroke-width: 0.952002846466761; fill: none;" /><path d="M 190 30  L 190 30" style="stroke: rgb(28, 32, 38); stroke-width: 0.9971519717034073; fill: none;" /><path d="M 195 10  L 195 10" style="stroke: rgb(28, 32, 38); stroke-width: 0.9613753930981247; fill: none;" /><path d="M 205 5  L 205 5" style="stroke: rgb(28, 32, 38); stroke-width: 0.9738881717190596; fill: none;" /><path d="M 210 15  L 210 15" style="stroke: rgb(28, 32, 38); stroke-width: 0.9376274378569792; fill: none;" /><path d="M 215 25  L 215 25" style="stroke: rgb(28, 32, 38); stroke-width: 0.9971164430823282; fill: none;" /><path d="M 215 40  L 215 40" style="stroke: rgb(28, 32, 38); stroke-width: 0.9003504236778863; fill: none;" /><path d="M 220 35  L 220 35" style="stroke: rgb(28, 32, 38); stroke-width: 0.9365076141509899; fill: none;" /><path d="M 235 15  L 235 15" style="stroke: rgb(28, 32, 38); stroke-width: 0.9018814154491606; fill: none;" /><path d="M 235 25  L 235 25 L 235 30" style="stroke: rgb(28, 32, 38); stroke-width: 0.9684050561623732; fill: none;" /><path d="M 245 30  L 245 30 L 245 35 L 245 40" style="stroke: rgb(28, 32, 38); stroke-width: 0.9396364243027863; fill: none;" /><path d="M 250 10  L 250 10 L 255 15 L 260 20 L 265 25 L 270 30 L 275 35" style="stroke: rgb(28, 32, 38); stroke-width: 0.9988528152700743; fill: none;" /><path d="M 250 20  L 250 20 L 250 25 L 255 30" style="stroke: rgb(28, 32, 38); stroke-width: 0.9048337525639804; fill: none;" /><path d="M 260 5  L 260 5" style="stroke: rgb(28, 32, 38); stroke-width: 0.9956202046372072; fill: none;" /><path d="M 260 25  L 260 25" style="stroke: rgb(28, 32, 38); stroke-width: 0.9533608271312318; fill: none;" /><path d="M 265 20  L 265 20 L 270 20" style="stroke: rgb(28, 32, 38); stroke-width: 0.9151093892007782; fill: none;" /><path d="M 270 35  L 270 35" style="stroke: rgb(28, 32, 38); stroke-width: 0.9178619197396881; fill: none;" /><path d="M 280 5  L 280 5" style="stroke: rgb(28, 32, 38); stroke-width: 0.9124348167366891; fill: none;" /><path d="M 290 10  L 290 10 L 290 15 L 295 20" style="stroke: rgb(28, 32, 38); stroke-width: 0.9362550180832144; fill: none;" /><path d="M 290 20  L 290 20" style="stroke: rgb(28, 32, 38); stroke-width: 0.978473062111757; fill: none;" /><path d="M 290 30  L 290 30" style="stroke: rgb(28, 32, 38); stroke-width: 0.9437401058124393; fill: none;" /><path d="M 290 40  L 290 40" style="stroke: rgb(28, 32, 38); stroke-width: 0.9612115498015699; fill: none;" /><path d="M 300 5  L 300 5 L 305 5" style="stroke: rgb(28, 32, 38); stroke-width: 0.9042505189929932; fill: none;" /><path d="M 300 15  L 300 15" style="stroke: rgb(28, 32, 38); stroke-width: 0.9985303581714094; fill: none;" /><path d="M 305 40  L 305 40" style="stroke: rgb(28, 32, 38); stroke-width: 0.9001361241385009; fill: none;" /><path d="M 315 10  L 315 10" style="stroke: rgb(28, 32, 38); stroke-width: 0.9283477633651693; fill: none;" /><path d="M 315 30  L 315 30 L 320 30 L 325 35 L 330 40" style="stroke: rgb(28, 32, 38); stroke-width: 0.996805057407339; fill: none;" /><path d="M 315 35  L 315 35" style="stroke: rgb(28, 32, 38); stroke-width: 0.9674673916663233; fill: none;" /><path d="M 320 0  L 320 0 L 325 5 L 330 5" style="stroke: rgb(28, 32, 38); stroke-width: 0.9358371213820162; fill: none;" /><path d="M 330 25  L 330 25 L 335 30" style="stroke: rgb(28, 32, 38); stroke-width: 0.9656200047334446; fill: none;" /><path d="M 335 15  L 335 15" style="stroke: rgb(28, 32, 38); stroke-width: 0.9075934264993686; fill: none;" /><path d="M 340 25  L 340 25" style="stroke: rgb(28, 32, 38); stroke-width: 0.9272994619034793; fill: none;" /><path d="M 350 10  L 350 10 L 355 15" style="stroke: rgb(28, 32, 38); stroke-width: 0.9684855760813166; fill: none;" /><path d="M 350 15  L 350 15 L 350 20" style="stroke: rgb(28, 32, 38); stroke-width: 0.9604754591001444; fill: none;" /><path d="M 355 40  L 355 40 L 360 40" style="stroke: rgb(28, 32, 38); stroke-width: 0.9107296339071187; fill: none;" /><path d="M 360 5  L 360 5" style="stroke: rgb(28, 32, 38); stroke-width: 0.9493984937367371; fill: none;" /><path d="M 360 25  L 360 25 L 365 25 L 370 30" style="stroke: rgb(28, 32, 38); stroke-width: 0.9862530890545828; fill: none;" /><path d="M 370 0  L 370 0" style="stroke: rgb(28, 32, 38); stroke-width: 0.9067816801008146; fill: none;" /><path d="M 370 20  L 370 20 L 375 20 L 380 20" style="stroke: rgb(28, 32, 38); stroke-width: 0.9547360617089273; fill: none;" /><path d="M 375 40  L 375 40" style="stroke: rgb(28, 32, 38); stroke-width: 0.9676481953209057; fill: none;" /><path d="M 385 10  L 385 10 L 385 15" style="stroke: rgb(28, 32, 38); stroke-width: 0.9726456295789001; fill: none;" /><path d="M 385 40  L 385 40" style="stroke: rgb(28, 32, 38); stroke-width: 0.9040585276441023; fill: none;" /><path d="M 390 25  L 390 25" style="stroke: rgb(28, 32, 38); stroke-width: 0.9660001675019126; fill: none;" /><path d="M 395 5  L 395 5" style="stroke: rgb(28, 32, 38); stroke-width: 0.9195527058081178; fill: none;" /><path d="M 395 40  L 395 40" style="stroke: rgb(28, 32, 38); stroke-width: 0.9763692764942823; fill: none;" /><path d="M 405 25  L 405 25 L 410 30 L 415 35" style="stroke: rgb(28, 32, 38); stroke-width: 0.9209698159661076; fill: none;" /><path d="M 415 10  L 415 10 L 415 15 L 420 20" style="stroke: rgb(28, 32, 38); stroke-width: 0.9596720609069768; fill: none;" /><path d="M 415 25  L 415 25" style="stroke: rgb(28, 32, 38); stroke-width: 0.9857417757062245; fill: none;" /><path d="M 430 15  L 430 15 L 435 20 L 440 20 L 445 20" style="stroke: rgb(28, 32, 38); stroke-width: 0.9895881905938516; fill: none;" /><path d="M 430 35  L 430 35 L 435 40" style="stroke: rgb(28, 32, 38); stroke-width: 0.9312496035249299; fill: none;" /><path d="M 435 0  L 435 0" style="stroke: rgb(28, 32, 38); stroke-width: 0.9248216398579983; fill: none;" /><path d="M 435 10  L 435 10" style="stroke: rgb(28, 32, 38); stroke-width: 0.9162907155448246; fill: none;" /><path d="M 440 30  L 440 30" style="stroke: rgb(28, 32, 38); stroke-width: 0.9974977007589564; fill: none;" /><path d="M 445 5  L 445 5" style="stroke: rgb(28, 32, 38); stroke-width: 0.9135179199540737; fill: none;" /><path d="M 445 40  L 445 40" style="stroke: rgb(28, 32, 38); stroke-width: 0.9540197895878513; fill: none;" /><path d="M 455 0  L 455 0 L 455 5" style="stroke: rgb(28, 32, 38); stroke-width: 0.9498063813819445; fill: none;" /><path d="M 455 20  L 455 20" style="stroke: rgb(28, 32, 38); stroke-width: 0.9935879592843695; fill: none;" /><path d="M 460 30  L 460 30" style="stroke: rgb(28, 32, 38); stroke-width: 0.9034526786384963; fill: none;" /><path d="M 460 40  L 460 40" style="stroke: rgb(28, 32, 38); stroke-width: 0.9080449720055934; fill: none;" /><path d="M 465 25  L 465 25" style="stroke: rgb(28, 32, 38); stroke-width: 0.9913056627133036; fill: none;" /><path d="M 480 20  L 480 20" style="stroke: rgb(28, 32, 38); stroke-width: 0.9023029215075328; fill: none;" /><path d="M 485 10  L 485 10" style="stroke: rgb(28, 32, 38); stroke-width: 0.9199292056212484; fill: none;" /><path d="M 490 20  L 490 20" style="stroke: rgb(28, 32, 38); stroke-width: 0.9728524512238883; fill: none;" /><path d="M 490 35  L 490 35 L 495 35" style="stroke: rgb(28, 32, 38); stroke-width: 0.9911892965890683; fill: none;" /><path d="M 490 40  L 490 40" style="stroke: rgb(28, 32, 38); stroke-width: 0.9505138970174667; fill: none;" /><path d="M 495 0  L 495 0" style="stroke: rgb(28, 32, 38); stroke-width: 0.9346239714082563; fill: none;" /><path d="M 495 10  L 495 10" style="stroke: rgb(28, 32, 38); stroke-width: 0.9096221001401706; fill: none;" /><path d="M 505 10  L 505 10 L 510 10 L 515 15" style="stroke: rgb(28, 32, 38); stroke-width: 0.9907533160805757; fill: none;" /><path d="M 505 15  L 505 15" style="stroke: rgb(28, 32, 38); stroke-width: 0.9031314504017753; fill: none;" /><path d="M 505 35  L 505 35" style="stroke: rgb(28, 32, 38); stroke-width: 0.9012112276463674; fill: none;" /><path d="M 510 30  L 510 30" style="stroke: rgb(28, 32, 38); stroke-width: 0.9490511355358126; fill: none;" /><path d="M 515 5  L 515 5 L 515 10" style="stroke: rgb(28, 32, 38); stroke-width: 0.9580087409046458; fill: none;" /><path d="M 520 0  L 520 0 L 525 5" style="stroke: rgb(28, 32, 38); stroke-width: 0.9764516017569305; fill: none;" /><path d="M 520 30  L 520 30 L 525 35 L 525 40" style="stroke: rgb(28, 32, 38); stroke-width: 0.9915475462067435; fill: none;" /><path d="M 535 10  L 535 10" style="stroke: rgb(28, 32, 38); stroke-width: 0.9499706844059301; fill: none;" /><path d="M 535 20  L 535 20 L 535 25" style="stroke: rgb(28, 32, 38); stroke-width: 0.9012026016790434; fill: none;" /><path d="M 540 0  L 540 0" style="stroke: rgb(28, 32, 38); stroke-width: 0.9790956097941182; fill: none;" /><path d="M 545 10  L 545 10" style="stroke: rgb(28, 32, 38); stroke-width: 0.9451153836271826; fill: none;" /><path d="M 545 35  L 545 35 L 545 40" style="stroke: rgb(28, 32, 38); stroke-width: 0.9370681683267882; fill: none;" /><path d="M 555 0  L 555 0 L 555 5" style="stroke: rgb(28, 32, 38); stroke-width: 0.961284867635351; fill: none;" /><path d="M 560 15  L 560 15 L 565 20 L 570 25" style="stroke: rgb(28, 32, 38); stroke-width: 0.9558223761668599; fill: none;" /><path d="M 560 25  L 560 25 L 565 25" style="stroke: rgb(28, 32, 38); stroke-width: 0.9260540091291294; fill: none;" /><path d="M 560 30  L 560 30 L 565 35 L 570 40" style="stroke: rgb(28, 32, 38); stroke-width: 0.9581076280266702; fill: none;" /><path d="M 560 40  L 560 40 L 565 40" style="stroke: rgb(28, 32, 38); stroke-width: 0.9045115304564828; fill: none;" /><path d="M 565 5  L 565 5" style="stroke: rgb(28, 32, 38); stroke-width: 0.9600020632425876; fill: none;" /><path d="M 570 0  L 570 0" style="stroke: rgb(28, 32, 38); stroke-width: 0.9358389773606415; fill: none;" /><path d="M 570 15  L 570 15" style="stroke: rgb(28, 32, 38); stroke-width: 0.9038550887025328; fill: none;" /><path d="M 575 10  L 575 10" style="stroke: rgb(28, 32, 38); stroke-width: 0.9873427367904726; fill: none;" /><path d="M 580 20  L 580 20" style="stroke: rgb(28, 32, 38); stroke-width: 0.9211459382202831; fill: none;" /><path d="M 590 20  L 590 20 L 595 20" style="stroke: rgb(28, 32, 38); stroke-width: 0.9570533076178839; fill: none;" /><path d="M 590 25  L 590 25" style="stroke: rgb(28, 32, 38); stroke-width: 0.9912164874855598; fill: none;" /><path d="M 605 5  L 605 5" style="stroke: rgb(28, 32, 38); stroke-width: 0.9370670456006491; fill: none;" /><path d="M 605 25  L 605 25" style="stroke: rgb(28, 32, 38); stroke-width: 0.9822667526593875; fill: none;" /><path d="M 620 10  L 620 10 L 625 15" style="stroke: rgb(28, 32, 38); stroke-width: 0.9167884427323543; fill: none;" /><path d="M 620 40  L 620 40" style="stroke: rgb(28, 32, 38); stroke-width: 0.9768212742275943; fill: none;" /><path d="M 625 0  L 625 0 L 630 5 L 635 10" style="stroke: rgb(28, 32, 38); stroke-width: 0.9224041862128551; fill: none;" /><path d="M 625 30  L 625 30 L 630 35" style="stroke: rgb(28, 32, 38); stroke-width: 0.9499550219045821; fill: none;" /><path d="M 625 35  L 625 35" style="stroke: rgb(28, 32, 38); stroke-width: 0.9083819174924227; fill: none;" /><path d="M 630 25  L 630 25 L 635 30" style="stroke: rgb(28, 32, 38); stroke-width: 0.98698332700777; fill: none;" /><path d="M 630 30  L 630 30" style="stroke: rgb(28, 32, 38); stroke-width: 0.9719355088589878; fill: none;" /><path d="M 640 20  L 640 20" style="stroke: rgb(28, 32, 38); stroke-width: 0.9941766868168528; fill: none;" /><path d="M 645 15  L 645 15" style="stroke: rgb(28, 32, 38); stroke-width: 0.9854880582722243; fill: none;" /><path d="M 645 35  L 645 35 L 650 35" style="stroke: rgb(28, 32, 38); stroke-width: 0.9009591925682306; fill: none;" /><path d="M 645 40  L 645 40" style="stroke: rgb(28, 32, 38); stroke-width: 0.9642232358914521; fill: none;" /><path d="M 650 10  L 650 10 L 655 10" style="stroke: rgb(28, 32, 38); stroke-width: 0.9029944111009152; fill: none;" /><path d="M 650 30  L 650 30" style="stroke: rgb(28, 32, 38); stroke-width: 0.9763411714388475; fill: none;" /><path d="M 655 5  L 655 5" style="stroke: rgb(28, 32, 38); stroke-width: 0.9484240023730695; fill: none;" /><path d="M 655 20  L 655 20" style="stroke: rgb(28, 32, 38); stroke-width: 0.9375637579009111; fill: none;" /><path d="M 665 10  L 665 10" style="stroke: rgb(28, 32, 38); stroke-width: 0.9536325291592067; fill: none;" /><path d="M 665 40  L 665 40 L 670 40 L 675 40" style="stroke: rgb(28, 32, 38); stroke-width: 0.9911234288750064; fill: none;" /><path d="M 670 0  L 670 0" style="stroke: rgb(28, 32, 38); stroke-width: 0.9794195717743308; fill: none;" /><path d="M 670 25  L 670 25" style="stroke: rgb(28, 32, 38); stroke-width: 0.9391524016802268; fill: none;" /><path d="M 680 15  L 680 15" style="stroke: rgb(28, 32, 38); stroke-width: 0.9458376303928259; fill: none;" /><path d="M 685 25  L 685 25 L 690 25 L 695 30 L 695 35 L 700 40" style="stroke: rgb(28, 32, 38); stroke-width: 0.9418196752833091; fill: none;" /><path d="M 685 30  L 685 30" style="stroke: rgb(28, 32, 38); stroke-width: 0.9095682277881946; fill: none;" /><path d="M 685 40  L 685 40" style="stroke: rgb(28, 32, 38); stroke-width: 0.9118712030847265; fill: none;" /><path d="M 700 10  L 700 10" style="stroke: rgb(28, 32, 38); stroke-width: 0.9919446726351607; fill: none;" /><path d="M 705 30  L 705 30 L 710 30" style="stroke: rgb(28, 32, 38); stroke-width: 0.9326552929906102; fill: none;" /><path d="M 705 35  L 705 35 L 710 40" style="stroke: rgb(28, 32, 38); stroke-width: 0.9934329210214023; fill: none;" /><path d="M 710 20  L 710 20" style="stroke: rgb(28, 32, 38); stroke-width: 0.9719059334943059; fill: none;" /><path d="M 715 10  L 715 10 L 720 10" style="stroke: rgb(28, 32, 38); stroke-width: 0.9192246617592267; fill: none;" /><path d="M 730 25  L 730 25 L 730 30 L 735 35" style="stroke: rgb(28, 32, 38); stroke-width: 0.9212720147254914; fill: none;" /><path d="M 735 20  L 735 20" style="stroke: rgb(28, 32, 38); stroke-width: 0.9593419411661039; fill: none;" /><path d="M 740 30  L 740 30" style="stroke: rgb(28, 32, 38); stroke-width: 0.9621349601721334; fill: none;" /><path d="M 745 25  L 745 25" style="stroke: rgb(28, 32, 38); stroke-width: 0.9377279329017923; fill: none;" /><path d="M 745 40  L 745 40" style="stroke: rgb(28, 32, 38); stroke-width: 0.9897984334347081; fill: none;" /></svg>